HIERARCHY
ROOT Bip001_Pelvis
{
  OFFSET 33.2923 95.8902 -28.781
  CHANNELS 6 Xposition Yposition Zposition Zrotation Xrotation Yrotation
  JOINT Bip001_Spine
  {
    OFFSET 1.4188e-005 10.2191 -0.0116013
    CHANNELS 3 Zrotation Xrotation Yrotation
    JOINT Bip001_L_Thigh
    {
      OFFSET 11.0458 -10.2192 0.0116197
      CHANNELS 3 Zrotation Xrotation Yrotation
      JOINT Bip001_L_Calf
      {
        OFFSET -0.707118 -44.0221 0.360014
        CHANNELS 3 Zrotation Xrotation Yrotation
        JOINT Bip001_L_Foot
        {
          OFFSET -0.651902 -40.5938 -3.56146
          CHANNELS 3 Zrotation Xrotation Yrotation
          JOINT Bip001_L_Toe0
          {
            OFFSET 0.0530839 -10.2181 13.1504
            CHANNELS 3 Zrotation Xrotation Yrotation
            End Site
            {
              OFFSET -1.02532e-005 0 7.55606
            }
          }
        }
      }
    }
    JOINT Bip001_R_Thigh
    {
      OFFSET -11.0458 -10.2191 0.0115893
      CHANNELS 3 Zrotation Xrotation Yrotation
      JOINT Bip001_R_Calf
      {
        OFFSET 0.706994 -44.0221 0.35984
        CHANNELS 3 Zrotation Xrotation Yrotation
        JOINT Bip001_R_Foot
        {
          OFFSET 0.651786 -40.5938 -3.5613
          CHANNELS 3 Zrotation Xrotation Yrotation
          JOINT Bip001_R_Toe0
          {
            OFFSET -0.0531479 -10.2181 13.1504
            CHANNELS 3 Zrotation Xrotation Yrotation
            End Site
            {
              OFFSET -1.02894e-005 0 7.55606
            }
          }
        }
      }
    }
    JOINT Bip001_Spine1
    {
      OFFSET 1.87041e-005 14.5736 1.08638
      CHANNELS 3 Zrotation Xrotation Yrotation
      JOINT Bip001_Spine2
      {
        OFFSET 2.24614e-005 14.5058 -1.69078
        CHANNELS 3 Zrotation Xrotation Yrotation
        JOINT Bip001_Neck
        {
          OFFSET 2.20278e-005 15.3945 -0.489414
          CHANNELS 3 Zrotation Xrotation Yrotation
          JOINT Bip001_L_Clavicle
          {
            OFFSET 6.06036 -0.000579998 0.00836775
            CHANNELS 3 Zrotation Xrotation Yrotation
            JOINT Bip001_L_UpperArm
            {
              OFFSET 11.5509 -0.0600302 0.00193952
              CHANNELS 3 Zrotation Xrotation Yrotation
              JOINT Bip001_L_Forearm
              {
                OFFSET 25.9523 0.0806089 -2.15551
                CHANNELS 3 Zrotation Xrotation Yrotation
                JOINT Bip001_L_Hand
                {
                  OFFSET 32.2476 0.153767 1.63968
                  CHANNELS 3 Zrotation Xrotation Yrotation
                  JOINT Bip001_L_Finger0
                  {
                    OFFSET 6.04639 -2.20976 5.90322
                    CHANNELS 3 Zrotation Xrotation Yrotation
                    End Site
                    {
                      OFFSET 4.22376 -1.43895 0.606486
                    }
                  }
                  JOINT Bip001_L_Finger1
                  {
                    OFFSET 11.0826 -0.704819 -0.198153
                    CHANNELS 3 Zrotation Xrotation Yrotation
                    End Site
                    {
                      OFFSET 6.20028 -0.397518 -0.0787166
                    }
                  }
                }
              }
            }
          }
          JOINT Bip001_R_Clavicle
          {
            OFFSET -6.06036 -0.000563197 0.00835105
            CHANNELS 3 Zrotation Xrotation Yrotation
            JOINT Bip001_R_UpperArm
            {
              OFFSET -11.5509 -0.0599978 0.00190698
              CHANNELS 3 Zrotation Xrotation Yrotation
              JOINT Bip001_R_Forearm
              {
                OFFSET -25.9523 0.080682 -2.1559
                CHANNELS 3 Zrotation Xrotation Yrotation
                JOINT Bip001_R_Hand
                {
                  OFFSET -32.2476 0.153858 1.63991
                  CHANNELS 3 Zrotation Xrotation Yrotation
                  JOINT Bip001_R_Finger0
                  {
                    OFFSET -6.04641 -2.20974 5.90321
                    CHANNELS 3 Zrotation Xrotation Yrotation
                    End Site
                    {
                      OFFSET -4.22376 -1.43894 0.606474
                    }
                  }
                  JOINT Bip001_R_Finger1
                  {
                    OFFSET -11.0826 -0.704789 -0.198184
                    CHANNELS 3 Zrotation Xrotation Yrotation
                    End Site
                    {
                      OFFSET -6.20028 -0.397501 -0.0787338
                    }
                  }
                }
              }
            }
          }
          JOINT Bip001_Head
          {
            OFFSET 1.09673e-005 11.2744 2.05948
            CHANNELS 3 Zrotation Xrotation Yrotation
            End Site
            {
              OFFSET 2.89576e-005 20.8808 -2.77728e-005
            }
          }
        }
      }
    }
  }
}
MOTION
Frames:	5
Frame Time:	0.04
31.7888 95.8274 -27.0421 -0.418426 1.34948 10.8834 -0.267703 1.94584 -0.149164 6.87833 -6.8993 5.74764 -0.404416 9.87297 -18.3308 0.67137 -5.50135 0.0183126 -4.43348 -1.58843 5.92868 -0.862634 -1.81942 -13.2893 -1.96467 9.24352 0.961949 -5.6669 -10.3117 3.78575 2.27531 -7.67923 2.32635 -0.53079 3.89234 -0.289502 -0.530792 3.89235 -0.289497 -0.308649 -4.88169 -5.09606 -24.3626 3.62719 6.03161 -51.0973 38.4498 -2.01467 12.0985 0.5958 -24.4481 8.50642 1.74329 -1.73399 3.18055e-015 0 -3.18055e-015 1.59028e-015 0 -0 3.70693 10.7634 44.3257 36.3361 5.07975 57.6643 -45.1012 -9.69703 52.8988 -60.3856 30.9682 25.4204 3.57812e-015 0 3.97569e-016 1.98785e-015 -3.18056e-015 1.19271e-015 3.80483 17.873 -6.26146 
31.8287 95.8439 -26.9245 -0.219045 1.26458 10.8751 -0.293501 1.97405 -0.210765 6.74431 -6.59934 5.88518 -0.396454 9.64046 -18.188 0.10391 -5.81121 0.0194255 -4.63377 -1.07406 6.06412 -1.04406 -1.79031 -13.3569 -2.01061 9.51426 0.976476 -5.61489 -10.4043 3.88345 2.2346 -7.64377 2.4126 -0.579914 3.94915 -0.411853 -0.580072 3.94915 -0.41202 -0.748871 -4.84241 -4.90976 -24.1035 3.59347 6.19492 -51.1829 37.7263 -1.87975 12.2034 1.48041 -24.4991 8.11457 1.61278 -1.92658 3.18055e-015 -6.36111e-015 -0 3.18055e-015 0 3.18055e-015 4.50213 10.8785 43.9493 38.139 4.10072 59.0275 -44.1401 -5.22062 57.4193 -64.8414 29.5726 25.5519 3.60297e-016 3.18055e-015 1.94436e-015 2.79541e-016 6.36111e-015 2.4289e-015 3.94226 17.9591 -6.24782 
31.889 95.8629 -26.8677 -0.0699185 1.23641 10.5963 -0.331781 1.98924 -0.262163 6.62915 -6.30329 5.62907 -0.493467 9.33586 -17.4566 -0.118963 -5.87639 0.0202748 -4.72182 -0.864142 6.1197 -1.21474 -1.81376 -13.2316 -2.00588 9.65101 1.02303 -5.55299 -10.4567 4.00529 2.21577 -7.55922 2.36673 -0.656351 3.97927 -0.514573 -0.655778 3.97927 -0.512783 -1.38352 -4.85793 -4.52458 -23.3218 3.7391 6.14643 -51.4218 38.2431 -1.58376 12.2004 1.23824 -24.4979 7.81595 1.69004 -1.74226 -3.18055e-015 3.18055e-015 -3.18055e-015 -1.59028e-015 -3.18056e-015 -0 6.09556 11.3584 43.5972 38.291 3.84187 57.6602 -45.1579 -3.98453 62.9019 -67.8658 26.8246 25.2996 7.95139e-016 -3.18055e-015 -0 7.95139e-016 -6.36111e-015 -1.19271e-015 4.40875 18.0382 -6.21964 
31.9784 95.8669 -26.8396 0.149054 1.13489 10.0484 -0.337004 2.0019 -0.226308 6.32161 -5.87036 5.76292 -0.436214 8.97104 -17.1308 0.103038 -5.58391 0.0208613 -4.59255 -1.01615 5.97895 -1.55128 -1.89162 -12.688 -1.8907 9.99081 0.939234 -5.5272 -10.5888 4.04212 2.16146 -7.48275 2.43428 -0.671538 4.00513 -0.439826 -0.671382 4.00513 -0.441078 -1.80024 -4.65236 -4.37991 -22.8901 3.71191 5.71018 -51.6475 39.1301 -1.18638 11.9621 0.317008 -24.3578 7.88158 1.59367 -1.45584 7.06225e-031 -6.36111e-015 6.36111e-015 -3.18055e-015 -3.18056e-015 6.36111e-015 7.89729 11.7165 42.833 38.7873 3.4146 57.2328 -44.4685 -2.67096 68.39 -69.1191 23.315 25.4518 -7.95139e-016 3.18055e-015 -0 4.41391e-032 3.18056e-015 -7.95139e-016 4.62075 17.9441 -6.26604 
32.1698 95.8763 -26.7924 0.60286 0.782549 9.47885 -0.371053 2.08656 -0.212695 5.63647 -5.14108 6.12745 0.0102843 8.47945 -17.1057 -0.262776 -5.66555 0.0212177 -4.86438 -0.767611 6.27363 -2.24273 -1.85036 -12.6297 -1.70565 10.6013 0.974767 -5.37251 -10.909 4.42733 2.1174 -7.43401 2.52099 -0.735066 4.17445 -0.415117 -0.734906 4.17446 -0.415795 -2.3881 -4.59042 -4.142 -22.3124 3.8892 5.15893 -51.8429 39.5573 -0.938562 12.0663 0.0386497 -24.1728 7.59291 1.80124 -1.43194 -1.76556e-031 3.18055e-015 3.18055e-015 1.59028e-015 0 3.18055e-015 10.0999 12.2618 41.8049 40.6534 2.38383 56.2044 -42.7152 -1.6514 76.0846 -67.3704 21.0415 24.2393 7.95139e-016 6.36111e-015 -0 0 1.27222e-014 -0 5.04422 17.8593 -6.33769 
